<mxfile host="app.diagrams.net" modified="2024-05-05T07:07:53.536Z" agent="Mozilla/5.0 (Windows NT 10.0; Win64; x64) AppleWebKit/537.36 (KHTML, like Gecko) Chrome/124.0.0.0 Safari/537.36" version="24.2.2" etag="2REbu8hUEC5Fl-AdqVGk" type="github">
  <diagram name="Page-1" id="u_pg2rhQKftwY1ePNk-n">
    <mxGraphModel>
      <root>
        <mxCell id="0" />
        <mxCell id="1" parent="0" />
      </root>
    </mxGraphModel>
  </diagram>
</mxfile>
